<svg width="12" height="13" viewBox="0 0 12 13" fill="none" xmlns="http://www.w3.org/2000/svg">
<path d="M9 6.5L9.70711 7.20711L10.4142 6.5L9.70711 5.79289L9 6.5ZM3.29289 10.7929C2.90237 11.1834 2.90237 11.8166 3.29289 12.2071C3.68342 12.5976 4.31658 12.5976 4.70711 12.2071L3.29289 10.7929ZM4.70711 0.792893C4.31658 0.402369 3.68342 0.402369 3.29289 0.792893C2.90237 1.18342 2.90237 1.81658 3.29289 2.20711L4.70711 0.792893ZM8.29289 5.79289L3.29289 10.7929L4.70711 12.2071L9.70711 7.20711L8.29289 5.79289ZM3.29289 2.20711L8.29289 7.20711L9.70711 5.79289L4.70711 0.792893L3.29289 2.20711Z" fill="#005AEB"/>
</svg>
