<svg width="12" height="12" viewBox="0 0 12 12" fill="none" xmlns="http://www.w3.org/2000/svg">
<path d="M6 3L6.70711 2.29289L6 1.58579L5.29289 2.29289L6 3ZM10.2929 8.70711C10.6834 9.09763 11.3166 9.09763 11.7071 8.70711C12.0976 8.31658 12.0976 7.68342 11.7071 7.29289L10.2929 8.70711ZM0.292893 7.29289C-0.0976311 7.68342 -0.0976311 8.31658 0.292893 8.70711C0.683417 9.09763 1.31658 9.09763 1.70711 8.70711L0.292893 7.29289ZM5.29289 3.70711L10.2929 8.70711L11.7071 7.29289L6.70711 2.29289L5.29289 3.70711ZM1.70711 8.70711L6.70711 3.70711L5.29289 2.29289L0.292893 7.29289L1.70711 8.70711Z" fill="#005AEB"/>
</svg>
