<svg width="12" height="8" viewBox="0 0 12 8" fill="none" xmlns="http://www.w3.org/2000/svg">
<path d="M6 6.5L5.46967 7.03033L6 7.56066L6.53033 7.03033L6 6.5ZM1.53033 0.96967C1.23744 0.676777 0.762563 0.676777 0.46967 0.96967C0.176777 1.26256 0.176777 1.73744 0.46967 2.03033L1.53033 0.96967ZM11.5303 2.03033C11.8232 1.73744 11.8232 1.26257 11.5303 0.969672C11.2374 0.676779 10.7626 0.676778 10.4697 0.969672L11.5303 2.03033ZM6.53033 5.96967L1.53033 0.96967L0.46967 2.03033L5.46967 7.03033L6.53033 5.96967ZM10.4697 0.969672L5.46967 5.96967L6.53033 7.03033L11.5303 2.03033L10.4697 0.969672Z" fill="#BDBDBD"/>
</svg>
