<svg width="12" height="8" viewBox="0 0 12 8" fill="none" xmlns="http://www.w3.org/2000/svg">
<path d="M6.00012 6L5.29301 6.70711L6.00012 7.41421L6.70723 6.70711L6.00012 6ZM1.70723 0.292893C1.3167 -0.0976311 0.68354 -0.0976311 0.293015 0.292893C-0.097509 0.683417 -0.097509 1.31658 0.293015 1.70711L1.70723 0.292893ZM11.7072 1.70711C12.0978 1.31658 12.0978 0.68342 11.7072 0.292895C11.3167 -0.0976292 10.6835 -0.0976293 10.293 0.292895L11.7072 1.70711ZM6.70723 5.29289L1.70723 0.292893L0.293015 1.70711L5.29301 6.70711L6.70723 5.29289ZM10.293 0.292895L5.29301 5.29289L6.70723 6.70711L11.7072 1.70711L10.293 0.292895Z" fill="#005AEB"/>
</svg>
