<svg width="64" height="65" viewBox="0 0 64 65" fill="none" xmlns="http://www.w3.org/2000/svg">
<g filter="url(#filter0_dd)">
<circle cx="32" cy="32" r="20" fill="white"/>
</g>
<path d="M35 32L35.7071 32.7071L36.4142 32L35.7071 31.2929L35 32ZM29.2929 36.2929C28.9024 36.6834 28.9024 37.3166 29.2929 37.7071C29.6834 38.0976 30.3166 38.0976 30.7071 37.7071L29.2929 36.2929ZM30.7071 26.2929C30.3166 25.9024 29.6834 25.9024 29.2929 26.2929C28.9024 26.6834 28.9024 27.3166 29.2929 27.7071L30.7071 26.2929ZM34.2929 31.2929L29.2929 36.2929L30.7071 37.7071L35.7071 32.7071L34.2929 31.2929ZM29.2929 27.7071L34.2929 32.7071L35.7071 31.2929L30.7071 26.2929L29.2929 27.7071Z" fill="#2E2E2E"/>
<defs>
<filter id="filter0_dd" x="0" y="0" width="64" height="65" filterUnits="userSpaceOnUse" color-interpolation-filters="sRGB">
<feFlood flood-opacity="0" result="BackgroundImageFix"/>
<feColorMatrix in="SourceAlpha" type="matrix" values="0 0 0 0 0 0 0 0 0 0 0 0 0 0 0 0 0 0 127 0"/>
<feOffset dy="1"/>
<feGaussianBlur stdDeviation="6"/>
<feColorMatrix type="matrix" values="0 0 0 0 0.116667 0 0 0 0 0.116181 0 0 0 0 0.116181 0 0 0 0.05 0"/>
<feBlend mode="normal" in2="BackgroundImageFix" result="effect1_dropShadow"/>
<feColorMatrix in="SourceAlpha" type="matrix" values="0 0 0 0 0 0 0 0 0 0 0 0 0 0 0 0 0 0 127 0"/>
<feOffset/>
<feGaussianBlur stdDeviation="6"/>
<feColorMatrix type="matrix" values="0 0 0 0 0.1 0 0 0 0 0.0966667 0 0 0 0 0.0966667 0 0 0 0.1 0"/>
<feBlend mode="normal" in2="effect1_dropShadow" result="effect2_dropShadow"/>
<feBlend mode="normal" in="SourceGraphic" in2="effect2_dropShadow" result="shape"/>
</filter>
</defs>
</svg>
