<svg width="64" height="64" viewBox="0 0 64 64" fill="none" xmlns="http://www.w3.org/2000/svg">
<g filter="url(#filter0_d)">
<g filter="url(#filter1_d)">
<circle cx="32" cy="32" r="20" fill="white"/>
</g>
<path d="M29 32L28.2929 31.2929L27.5858 32L28.2929 32.7071L29 32ZM34.7071 27.7071C35.0976 27.3166 35.0976 26.6834 34.7071 26.2929C34.3166 25.9024 33.6834 25.9024 33.2929 26.2929L34.7071 27.7071ZM33.2929 37.7071C33.6834 38.0976 34.3166 38.0976 34.7071 37.7071C35.0976 37.3166 35.0976 36.6834 34.7071 36.2929L33.2929 37.7071ZM29.7071 32.7071L34.7071 27.7071L33.2929 26.2929L28.2929 31.2929L29.7071 32.7071ZM34.7071 36.2929L29.7071 31.2929L28.2929 32.7071L33.2929 37.7071L34.7071 36.2929Z" fill="#4F4F4F"/>
</g>
<defs>
<filter id="filter0_d" x="8" y="12" width="48" height="48" filterUnits="userSpaceOnUse" color-interpolation-filters="sRGB">
<feFlood flood-opacity="0" result="BackgroundImageFix"/>
<feColorMatrix in="SourceAlpha" type="matrix" values="0 0 0 0 0 0 0 0 0 0 0 0 0 0 0 0 0 0 127 0"/>
<feOffset dy="4"/>
<feGaussianBlur stdDeviation="2"/>
<feColorMatrix type="matrix" values="0 0 0 0 0 0 0 0 0 0 0 0 0 0 0 0 0 0 0.25 0"/>
<feBlend mode="normal" in2="BackgroundImageFix" result="effect1_dropShadow"/>
<feBlend mode="normal" in="SourceGraphic" in2="effect1_dropShadow" result="shape"/>
</filter>
<filter id="filter1_d" x="0" y="0" width="64" height="64" filterUnits="userSpaceOnUse" color-interpolation-filters="sRGB">
<feFlood flood-opacity="0" result="BackgroundImageFix"/>
<feColorMatrix in="SourceAlpha" type="matrix" values="0 0 0 0 0 0 0 0 0 0 0 0 0 0 0 0 0 0 127 0"/>
<feOffset/>
<feGaussianBlur stdDeviation="6"/>
<feColorMatrix type="matrix" values="0 0 0 0 0.1 0 0 0 0 0.0966667 0 0 0 0 0.0966667 0 0 0 0.15 0"/>
<feBlend mode="normal" in2="BackgroundImageFix" result="effect1_dropShadow"/>
<feBlend mode="normal" in="SourceGraphic" in2="effect1_dropShadow" result="shape"/>
</filter>
</defs>
</svg>
