<svg width="31" height="34" viewBox="0 0 31 34" fill="none" xmlns="http://www.w3.org/2000/svg">
<path d="M25.5 23.8C24.2333 23.8 23.1 24.3 22.2333 25.0833L10.35 18.1666C10.4333 17.7833 10.5 17.4 10.5 17C10.5 16.6 10.4333 16.2166 10.35 15.8333L22.1 8.98331C23 9.81665 24.1833 10.3333 25.5 10.3333C28.2667 10.3333 30.5 8.09998 30.5 5.33331C30.5 2.56665 28.2667 0.333313 25.5 0.333313C22.7333 0.333313 20.5 2.56665 20.5 5.33331C20.5 5.73331 20.5667 6.11665 20.65 6.49998L8.9 13.35C8 12.5166 6.81667 12 5.5 12C2.73333 12 0.5 14.2333 0.5 17C0.5 19.7666 2.73333 22 5.5 22C6.81667 22 8 21.4833 8.9 20.65L20.7667 27.5833C20.6833 27.9333 20.6333 28.3 20.6333 28.6666C20.6333 31.35 22.8167 33.5333 25.5 33.5333C28.1833 33.5333 30.3667 31.35 30.3667 28.6666C30.3667 25.9833 28.1833 23.8 25.5 23.8Z" fill="black" fill-opacity="0.87"/>
</svg>
