<svg width="12" height="13" viewBox="0 0 12 13" fill="none" xmlns="http://www.w3.org/2000/svg">
<path d="M6 9.5L5.46967 10.0303L6 10.5607L6.53033 10.0303L6 9.5ZM1.53033 3.96967C1.23744 3.67678 0.762563 3.67678 0.46967 3.96967C0.176777 4.26256 0.176777 4.73744 0.46967 5.03033L1.53033 3.96967ZM11.5303 5.03033C11.8232 4.73744 11.8232 4.26257 11.5303 3.96967C11.2374 3.67678 10.7626 3.67678 10.4697 3.96967L11.5303 5.03033ZM6.53033 8.96967L1.53033 3.96967L0.46967 5.03033L5.46967 10.0303L6.53033 8.96967ZM10.4697 3.96967L5.46967 8.96967L6.53033 10.0303L11.5303 5.03033L10.4697 3.96967Z" fill="#BDBDBD"/>
</svg>
