<svg width="40" height="40" viewBox="0 0 40 40" fill="none" xmlns="http://www.w3.org/2000/svg">
<path d="M32.5 40H7.5C3.3575 40 0 36.6425 0 32.5V7.5C0 3.3575 3.3575 0 7.5 0H32.5C36.6425 0 40 3.3575 40 7.5V32.5C40 36.6425 36.6425 40 32.5 40Z" fill="#F2F2F2"/>
<g clip-path="url(#clip0)">
<path d="M18.6308 21.5862L21.9331 19.8104L18.6308 18.0034V21.5862Z" fill="#4F4F4F"/>
<path d="M29.8529 15.9972L29.852 15.988C29.8351 15.827 29.6664 14.395 28.9703 13.6668C28.1657 12.8102 27.2536 12.7061 26.8149 12.6562C26.7786 12.652 26.7453 12.6483 26.7155 12.6443L26.6806 12.6407C24.0366 12.4484 20.0435 12.4222 20.0035 12.4219H19.9965C19.9565 12.4222 15.9634 12.4484 13.2956 12.6407L13.2603 12.6443C13.232 12.6482 13.2007 12.6517 13.1667 12.6556C12.733 12.7057 11.8306 12.8099 11.0237 13.6974C10.3607 14.418 10.1691 15.8192 10.1494 15.9767L10.1471 15.9972C10.1411 16.0641 10 17.6588 10 19.2598V20.7564C10 22.3573 10.1411 23.952 10.1471 24.019L10.1482 24.0292C10.1651 24.1875 10.3336 25.5931 11.0265 26.3217C11.783 27.1498 12.7396 27.2592 13.2541 27.3181C13.3354 27.3274 13.4056 27.3355 13.4532 27.3439L13.4995 27.3502C15.0261 27.4956 19.8126 27.5671 20.0156 27.57L20.0217 27.5702L20.0276 27.57C20.0677 27.5699 24.0607 27.5436 26.7047 27.3512L26.7397 27.3477C26.7729 27.3433 26.8105 27.3393 26.8517 27.3351C27.283 27.2893 28.1804 27.1942 28.9763 26.3188C29.6393 25.5981 29.8309 24.1969 29.8506 24.0395L29.8529 24.019C29.8589 23.952 30 22.3573 30 20.7564V19.2598C30 17.6588 29.8589 16.0643 29.8529 15.9972ZM23.0733 20.5281L18.6548 22.9041C18.5335 22.9694 18.4016 23.0019 18.2701 23.0019C18.1265 23.0019 17.9832 22.9631 17.854 22.886C17.6065 22.738 17.4588 22.4776 17.4588 22.1893V17.3956C17.4588 17.106 17.6074 16.8451 17.8564 16.6974C18.1055 16.5498 18.4059 16.5445 18.66 16.6835L23.0785 19.1013C23.3398 19.2442 23.5016 19.5183 23.5005 19.8163C23.4995 20.1141 23.3357 20.387 23.0733 20.5281Z" fill="#4F4F4F"/>
</g>
<defs>
<clipPath id="clip0">
<rect width="20" height="20" fill="white" transform="translate(10 10)"/>
</clipPath>
</defs>
</svg>
