<svg width="40" height="40" viewBox="0 0 40 40" fill="none" xmlns="http://www.w3.org/2000/svg">
<path d="M32.5 40H7.5C3.3575 40 0 36.6425 0 32.5V7.5C0 3.3575 3.3575 0 7.5 0H32.5C36.6425 0 40 3.3575 40 7.5V32.5C40 36.6425 36.6425 40 32.5 40Z" fill="#F2F2F2"/>
<path d="M24.5862 10H15.4138C12.4286 10 10 12.4286 10 15.4138V24.5863C10 27.5714 12.4286 30 15.4138 30H24.5863C27.5714 30 30 27.5714 30 24.5863V15.4138C30 12.4286 27.5714 10 24.5862 10V10ZM20 25.4686C16.9845 25.4686 14.5314 23.0154 14.5314 20C14.5314 16.9845 16.9845 14.5314 20 14.5314C23.0154 14.5314 25.4686 16.9845 25.4686 20C25.4686 23.0154 23.0154 25.4686 20 25.4686ZM25.5993 15.8211C24.7082 15.8211 23.9834 15.0963 23.9834 14.2052C23.9834 13.314 24.7082 12.5891 25.5993 12.5891C26.4904 12.5891 27.2154 13.314 27.2154 14.2052C27.2154 15.0963 26.4904 15.8211 25.5993 15.8211Z" fill="#4F4F4F"/>
<path d="M20 15.7041C17.6312 15.7041 15.7039 17.6313 15.7039 20.0002C15.7039 22.369 17.6312 24.2963 20 24.2963C22.3689 24.2963 24.2961 22.369 24.2961 20.0002C24.2961 17.6313 22.3689 15.7041 20 15.7041Z" fill="#4F4F4F"/>
<path d="M25.5993 13.7617C25.3549 13.7617 25.1559 13.9607 25.1559 14.2051C25.1559 14.4496 25.3549 14.6486 25.5993 14.6486C25.8439 14.6486 26.0429 14.4497 26.0429 14.2051C26.0429 13.9605 25.8439 13.7617 25.5993 13.7617Z" fill="#4F4F4F"/>
</svg>
