<svg width="18" height="16" viewBox="0 0 18 16" fill="none" xmlns="http://www.w3.org/2000/svg">
<path d="M1.70834 6.68823H16.2917C16.866 6.68823 17.3333 7.15558 17.3333 7.7299C17.3333 8.30422 16.866 8.77157 16.2917 8.77157H1.70834C1.13403 8.77157 0.666676 8.30422 0.666676 7.7299C0.666676 7.15558 1.13403 6.68823 1.70834 6.68823Z" fill="#4F4F4F"/>
<path d="M1.61253 8.0903C1.80071 8.03753 1.98961 8.14447 2.04169 8.3292L2.06878 8.42435H15.9306L15.9584 8.3292C16.0104 8.14447 16.2007 8.03893 16.3875 8.0903C16.5723 8.14307 16.6785 8.33545 16.6257 8.51947L15.6688 11.8695C15.3723 12.9076 14.4111 13.6326 13.332 13.6326H4.66878C3.58893 13.6326 2.62851 12.9076 2.33196 11.8695L1.37503 8.51947C1.32154 8.33542 1.42851 8.14307 1.61253 8.0903Z" fill="#4F4F4F"/>
<path d="M12.6646 12.9743C12.8361 12.8903 13.0438 12.9576 13.1306 13.1299L13.825 14.5188C13.9104 14.6903 13.841 14.8986 13.6694 14.9848C13.6188 15.0098 13.566 15.0216 13.5139 15.0216C13.3868 15.0216 13.2646 14.9514 13.2035 14.8292L12.509 13.4403C12.4236 13.2687 12.4931 13.0604 12.6646 12.9743Z" fill="#4F4F4F"/>
<path d="M4.17506 14.5195L4.86949 13.1306C4.95559 12.9583 5.16392 12.8896 5.33547 12.975C5.50698 13.0611 5.57645 13.2694 5.49103 13.441L4.7966 14.8299C4.7355 14.9514 4.61327 15.0216 4.48619 15.0216C4.4341 15.0216 4.38134 15.0097 4.33062 14.9855C4.15907 14.8993 4.08964 14.691 4.17506 14.5195Z" fill="#4F4F4F"/>
<path d="M3.38542 0.5C3.73959 0.5 4.07292 0.638184 4.32361 0.8889L5.42569 1.99098C5.56111 2.1264 5.56111 2.34655 5.42569 2.48197C5.29027 2.61738 5.07012 2.61738 4.93471 2.48197L3.83265 1.38057C3.7139 1.26113 3.55489 1.19515 3.38197 1.19515C3.03337 1.19515 2.75004 1.47848 2.75004 1.82708V9.11875C2.75004 9.31042 2.59447 9.46598 2.4028 9.46598C2.21114 9.46598 2.05557 9.31042 2.05488 9.11807V1.8264C2.05485 1.09515 2.64932 0.5 3.38542 0.5Z" fill="#4F4F4F"/>
<path d="M4.58755 2.33821L5.28198 1.64378C5.36115 1.56461 5.47156 1.52779 5.58406 1.54654L7.32016 1.83128C7.44793 1.85211 7.55281 1.94238 7.59376 2.06461C7.63474 2.18684 7.60349 2.32294 7.51319 2.41529L5.42986 4.56113C5.36388 4.62988 5.27293 4.66669 5.18126 4.66669C5.14862 4.66669 5.11528 4.66184 5.08266 4.65211C4.95906 4.61601 4.86532 4.51393 4.84032 4.38753L4.49308 2.65143C4.4702 2.53821 4.50562 2.42083 4.58755 2.33821Z" fill="#4F4F4F"/>
</svg>
