<svg width="53" height="84" viewBox="0 0 53 84" fill="none" xmlns="http://www.w3.org/2000/svg">
<path d="M10.9194 38.0429L6.36231 40.9988C2.46979 43.5733 0.950759 48.627 2.75461 53.0131C2.75461 53.0131 6.36231 66.3624 15.1917 73.9905C15.1917 78.9488 15.1917 81.9047 15.1917 82H44.3381V74.2766C44.3381 74.2766 49.6547 65.6949 50.2243 60.9273C50.7939 56.0644 50.8889 39.8546 50.8889 39.8546C50.8889 37.3755 48.8952 35.3731 46.4267 35.3731H45.952C43.4836 35.3731 41.4899 37.3755 41.4899 39.8546V44.9083C41.5848 44.8129 41.5848 40.6174 41.5848 37.0894C41.5848 34.2289 39.3063 31.9404 36.4581 31.9404C33.6099 31.9404 31.3314 34.2289 31.3314 37.0894V44.8129C31.2364 44.7176 31.2364 38.4244 31.2364 33.8475C31.2364 31.1776 29.1478 28.9845 26.4895 28.9845C23.8312 28.9845 21.7425 31.1776 21.7425 33.7521V44.5268C21.5526 44.5268 21.5526 22.882 21.5526 12.9655C21.5526 10.2956 19.369 8.10254 16.8056 8.10254C14.1473 8.10254 12.0587 10.2956 12.0587 12.8701V51.1061" stroke="#021C5A" stroke-width="3" stroke-miterlimit="10" stroke-linecap="round" stroke-linejoin="round"/>
<path d="M5.50776 13.1561C5.50776 7.05363 10.4446 2 16.6157 2H17.2802C23.3564 2 28.3882 6.95828 28.3882 13.1561V13.3468" stroke="#021C5A" stroke-width="3" stroke-miterlimit="10" stroke-linecap="round" stroke-linejoin="round"/>
<path d="M39.2113 70.8439C39.2113 70.8439 43.1038 65.7903 44.2431 58.4482" stroke="#021C5A" stroke-width="3" stroke-miterlimit="10" stroke-linecap="round" stroke-linejoin="round"/>
<path d="M44.7185 51.583L44.6231 51.9644" stroke="#021C5A" stroke-width="3" stroke-miterlimit="10" stroke-linecap="round" stroke-linejoin="round"/>
</svg>
