<svg width="16" height="10" viewBox="0 0 16 10" fill="none" xmlns="http://www.w3.org/2000/svg">
<path d="M8 7.99992L7.29289 8.70703L8 9.41413L8.7071 8.70703L8 7.99992ZM2.04044 0.626145C1.64991 0.235621 1.01675 0.235621 0.626225 0.626145C0.235701 1.01667 0.235701 1.64983 0.626225 2.04036L2.04044 0.626145ZM15.3738 2.04036C15.7643 1.64984 15.7643 1.01667 15.3738 0.626148C14.9832 0.235623 14.3501 0.235623 13.9596 0.626148L15.3738 2.04036ZM8.7071 7.29281L2.04044 0.626145L0.626225 2.04036L7.29289 8.70703L8.7071 7.29281ZM13.9596 0.626148L7.29289 7.29281L8.7071 8.70703L15.3738 2.04036L13.9596 0.626148Z" fill="#2E2E2E"/>
</svg>
