<svg width="32" height="32" viewBox="0 0 32 32" fill="none" xmlns="http://www.w3.org/2000/svg">
<rect width="32" height="32" rx="4" fill="black" fill-opacity="0.3"/>
<path d="M22.63 10.4575C22.247 10.0742 21.7921 9.77023 21.2915 9.56281C20.791 9.35539 20.2544 9.24863 19.7125 9.24863C19.1707 9.24863 18.6341 9.35539 18.1335 9.56281C17.6329 9.77023 17.1781 10.0742 16.795 10.4575L16 11.2525L15.205 10.4575C14.4313 9.68373 13.3818 9.24903 12.2875 9.24903C11.1933 9.24903 10.1438 9.68373 9.37003 10.4575C8.59626 11.2313 8.16156 12.2807 8.16156 13.375C8.16156 14.4693 8.59626 15.5187 9.37003 16.2925L10.165 17.0875L16 22.9225L21.835 17.0875L22.63 16.2925C23.0133 15.9094 23.3173 15.4546 23.5247 14.954C23.7321 14.4534 23.8389 13.9169 23.8389 13.375C23.8389 12.8331 23.7321 12.2966 23.5247 11.796C23.3173 11.2954 23.0133 10.8406 22.63 10.4575V10.4575Z" stroke="white" stroke-width="1.5" stroke-linecap="round" stroke-linejoin="round"/>
</svg>
