<svg width="12" height="12" viewBox="0 0 12 12" fill="none" xmlns="http://www.w3.org/2000/svg">
<path d="M9 6L9.70711 6.70711L10.4142 6L9.70711 5.29289L9 6ZM3.29289 10.2929C2.90237 10.6834 2.90237 11.3166 3.29289 11.7071C3.68342 12.0976 4.31658 12.0976 4.70711 11.7071L3.29289 10.2929ZM4.70711 0.292893C4.31658 -0.0976311 3.68342 -0.0976311 3.29289 0.292893C2.90237 0.683417 2.90237 1.31658 3.29289 1.70711L4.70711 0.292893ZM8.29289 5.29289L3.29289 10.2929L4.70711 11.7071L9.70711 6.70711L8.29289 5.29289ZM3.29289 1.70711L8.29289 6.70711L9.70711 5.29289L4.70711 0.292893L3.29289 1.70711Z" fill="#2E2E2E"/>
</svg>
