<svg width="84" height="84" viewBox="0 0 84 84" fill="none" xmlns="http://www.w3.org/2000/svg">
<path d="M56.5716 38.4761H44.9525L49.6192 10.4761L27.4287 45.5237H39.0478L34.3811 73.5237L56.5716 38.4761Z" stroke="#021C5A" stroke-width="3" stroke-miterlimit="10" stroke-linecap="round" stroke-linejoin="round"/>
<path d="M35.2378 64.4761C25.5235 61.6189 18.4759 52.5713 18.4759 41.9999C18.4759 29.0475 28.9521 18.4761 41.9997 18.4761C41.9997 18.4761 42.3807 18.4761 43.3331 18.4761" stroke="#021C5A" stroke-width="3" stroke-miterlimit="10" stroke-linecap="round" stroke-linejoin="round"/>
<path d="M49.0477 19.6191C58.5715 22.6668 65.4287 31.5239 65.4287 42.0001C65.4287 54.9525 54.9525 65.5239 41.9049 65.5239C41.2382 65.5239 40.5715 65.5239 39.8096 65.4287" stroke="#021C5A" stroke-width="3" stroke-miterlimit="10" stroke-linecap="round" stroke-linejoin="round"/>
<path d="M5.33327 57.9048C3.23803 53.0476 1.99994 47.619 1.99994 42C1.99994 19.9048 19.9047 2 41.9999 2C52.7618 2 62.5714 6.28571 69.8095 13.2381" stroke="#021C5A" stroke-width="3" stroke-miterlimit="10" stroke-linecap="round" stroke-linejoin="round"/>
<path d="M12.6667 69.1429C11.6191 68.0001 10.6667 66.8572 9.71432 65.6191" stroke="#021C5A" stroke-width="3" stroke-miterlimit="10" stroke-linecap="round" stroke-linejoin="round"/>
<path d="M78.381 25.3335C80.7619 30.3811 82 36.0954 82 42.0002C82 64.0954 64.0953 82.0002 42 82.0002C33.1429 82.0002 24.9524 79.143 18.2857 74.1906L16.381 72.6668" stroke="#021C5A" stroke-width="3" stroke-miterlimit="10" stroke-linecap="round" stroke-linejoin="round"/>
<path d="M73.714 17.6191C74.2854 18.381 74.8569 19.2382 75.4283 20.0001" stroke="#021C5A" stroke-width="3" stroke-miterlimit="10" stroke-linecap="round" stroke-linejoin="round"/>
<path d="M5.04773 57.8096C5.04773 57.8096 5.80963 59.3334 6.57154 60.8572" stroke="#021C5A" stroke-width="3" stroke-miterlimit="10" stroke-linecap="round" stroke-linejoin="round"/>
</svg>
