<svg width="40" height="40" viewBox="0 0 40 40" fill="none" xmlns="http://www.w3.org/2000/svg">
<path d="M32.5 40H7.5C3.3575 40 0 36.6425 0 32.5V7.5C0 3.3575 3.3575 0 7.5 0H32.5C36.6425 0 40 3.3575 40 7.5V32.5C40 36.6425 36.6425 40 32.5 40Z" fill="#F2F2F2"/>
<g clip-path="url(#clip0)">
<path d="M22.397 14.9115C22.4243 14.8807 22.552 14.78 23.0536 14.78L24.698 14.7794C25.233 14.7794 25.6681 14.3442 25.6681 13.8092V10.9351C25.6681 10.401 25.2336 9.96582 24.6996 9.9649L22.2569 9.96094C20.7494 9.96094 19.4678 10.4582 18.5507 11.3992C17.6378 12.336 17.1552 13.6437 17.1552 15.1807V16.7308H15.2866C14.7516 16.7308 14.3164 17.166 14.3164 17.701V20.7964C14.3164 21.3314 14.7516 21.7665 15.2866 21.7665H17.1552V28.9908C17.1552 29.5258 17.5903 29.961 18.1253 29.961H21.3281C21.8631 29.961 22.2983 29.5258 22.2983 28.9908V21.7667H24.5824C25.1174 21.7667 25.5524 21.3314 25.5524 20.7967L25.5536 17.7011C25.5536 17.3497 25.3624 17.0246 25.0545 16.8526C24.9118 16.7729 24.7458 16.7308 24.5746 16.7308H22.2983V15.5061C22.2983 15.107 22.352 14.9625 22.397 14.9115Z" fill="#4F4F4F"/>
</g>
<defs>
<clipPath id="clip0">
<rect width="19.961" height="20" fill="white" transform="translate(10 10)"/>
</clipPath>
</defs>
</svg>
