<svg width="7" height="10" viewBox="0 0 7 10" fill="none" xmlns="http://www.w3.org/2000/svg">
<path d="M4.99996 4.99996L5.53029 5.53029L6.06062 4.99996L5.53029 4.46963L4.99996 4.99996ZM1.1363 7.80296C0.843403 8.09586 0.843403 8.57073 1.1363 8.86362C1.42919 9.15652 1.90406 9.15652 2.19696 8.86362L1.1363 7.80296ZM2.19696 1.1363C1.90406 0.843403 1.42919 0.843403 1.1363 1.1363C0.843403 1.42919 0.843403 1.90406 1.1363 2.19696L2.19696 1.1363ZM4.46963 4.46963L1.1363 7.80296L2.19696 8.86362L5.53029 5.53029L4.46963 4.46963ZM1.1363 2.19696L4.46963 5.53029L5.53029 4.46963L2.19696 1.1363L1.1363 2.19696Z" fill="#828282"/>
</svg>
