<svg width="80" height="68" viewBox="0 0 80 68" fill="none" xmlns="http://www.w3.org/2000/svg">
<path d="M68.6618 15.2594L61.9122 25.5198C61.4247 26.2606 60.5978 26.7067 59.7115 26.7067C58.8253 26.7067 57.9986 26.2606 57.5109 25.5195L53.6743 19.6873C52.8737 18.4705 53.2101 16.8343 54.4255 16.0331C55.6416 15.2313 57.275 15.5683 58.0753 16.7854L59.7113 19.2724L64.2603 12.3572C65.0611 11.1405 66.695 10.8041 67.9101 11.6051C69.1258 12.4064 69.4621 14.0425 68.6618 15.2594ZM68.0931 42.5748C66.638 42.5748 65.4582 43.7559 65.4582 45.2129V62.7238H5.26979V16.1364L13.8466 28.6258C14.3381 29.3414 15.1502 29.7693 16.0178 29.7693H35.2894C36.7446 29.7693 37.9243 28.5881 37.9243 27.1312C37.9243 25.6742 36.7446 24.4931 35.2894 24.4931H17.4037L9.77499 13.3841H35.2894C36.7446 13.3841 37.9243 12.203 37.9243 10.746C37.9243 9.28906 36.7446 8.10789 35.2894 8.10789H4.79886C4.77515 8.10741 4.75144 8.10741 4.72796 8.10789H2.6349C1.17972 8.10789 0 9.28906 0 10.746V65.3619C0 66.8189 1.17972 68.0001 2.6349 68.0001H68.0931C69.5483 68.0001 70.728 66.8189 70.728 65.3619V45.2129C70.728 43.7559 69.5486 42.5748 68.0931 42.5748ZM80 18.9388C80 29.3359 71.552 37.7942 61.1684 37.7942C50.784 37.7942 42.3361 29.3357 42.3361 18.9388C42.3361 8.54198 50.7843 0.0834351 61.1684 0.0834351C71.552 0.0834351 80 8.54175 80 18.9388ZM74.7302 18.9388C74.7302 11.4511 68.6465 5.35969 61.1684 5.35969C53.6898 5.35969 47.6059 11.4511 47.6059 18.9388C47.6059 26.4266 53.6898 32.518 61.1684 32.518C68.6462 32.518 74.7302 26.4263 74.7302 18.9388Z" fill="#333333"/>
<path fill-rule="evenodd" clip-rule="evenodd" d="M79.9639 18.8554C79.9639 29.2525 71.516 37.7108 61.1323 37.7108C50.748 37.7108 42.3 29.2523 42.3 18.8554C42.3 8.45855 50.7482 0 61.1323 0C71.516 0 79.9639 8.45831 79.9639 18.8554ZM61.1323 5.27625C68.6104 5.27625 74.6941 11.3677 74.6941 18.8554C74.6941 26.3429 68.6102 32.4346 61.1323 32.4346C53.6538 32.4346 47.5698 26.3431 47.5698 18.8554C47.5698 11.3677 53.6538 5.27625 61.1323 5.27625ZM68.6257 15.1759L61.8761 25.4363C61.3886 26.1772 60.5618 26.6233 59.6755 26.6233C58.7892 26.6233 57.9626 26.1772 57.4749 25.4361L53.6382 19.6039C52.8377 18.387 53.174 16.7509 54.3894 15.9496C55.6055 15.1479 57.2389 15.4848 58.0392 16.702L59.6752 19.189L64.2243 12.2738C65.025 11.0571 66.6589 10.7206 67.8741 11.5217C69.0897 12.3229 69.426 13.959 68.6257 15.1759Z" fill="#27AE60"/>
</svg>
