<svg width="10" height="7" viewBox="0 0 10 7" fill="none" xmlns="http://www.w3.org/2000/svg">
<path d="M5.00001 5.50004L4.46968 6.03037L5.00001 6.5607L5.53034 6.03037L5.00001 5.50004ZM1.36367 0.803044C1.07078 0.510151 0.595907 0.510151 0.303013 0.803044C0.0101202 1.09594 0.0101202 1.57081 0.303013 1.8637L1.36367 0.803044ZM9.69701 1.86371C9.9899 1.57081 9.9899 1.09594 9.69701 0.803046C9.40411 0.510152 8.92924 0.510152 8.63635 0.803045L9.69701 1.86371ZM5.53034 4.96971L1.36367 0.803044L0.303013 1.8637L4.46968 6.03037L5.53034 4.96971ZM8.63635 0.803045L4.46968 4.96971L5.53034 6.03037L9.69701 1.86371L8.63635 0.803045Z" fill="#005AEB"/>
</svg>
