<svg width="16" height="14" viewBox="0 0 16 14" fill="none" xmlns="http://www.w3.org/2000/svg">
<path d="M14 7.00008L14.7071 7.70719L15.4142 7.00008L14.7071 6.29297L14 7.00008ZM7.95956 11.6263C7.56904 12.0168 7.56904 12.65 7.95956 13.0405C8.35008 13.431 8.98325 13.431 9.37377 13.0405L7.95956 11.6263ZM9.37378 0.959641C8.98325 0.569117 8.35009 0.569117 7.95956 0.959641C7.56904 1.35017 7.56904 1.98333 7.95956 2.37385L9.37378 0.959641ZM1.33333 6.00008C0.781049 6.00008 0.333334 6.4478 0.333334 7.00008C0.333334 7.55237 0.781049 8.00008 1.33333 8.00008L1.33333 6.00008ZM13.2929 6.29297L7.95956 11.6263L9.37377 13.0405L14.7071 7.70719L13.2929 6.29297ZM7.95956 2.37385L13.2929 7.70719L14.7071 6.29297L9.37378 0.959641L7.95956 2.37385ZM14 6.00008L1.33333 6.00008L1.33333 8.00008L14 8.00008V6.00008Z" fill="white"/>
</svg>
