<svg width="7" height="10" viewBox="0 0 7 10" fill="none" xmlns="http://www.w3.org/2000/svg">
<path d="M4.99999 4.99996L5.53032 5.53029L6.06065 4.99996L5.53032 4.46963L4.99999 4.99996ZM1.13633 7.80296C0.843433 8.09586 0.843433 8.57073 1.13633 8.86362C1.42922 9.15652 1.90409 9.15652 2.19699 8.86362L1.13633 7.80296ZM2.19699 1.1363C1.90409 0.843403 1.42922 0.843403 1.13633 1.1363C0.843433 1.42919 0.843433 1.90406 1.13633 2.19696L2.19699 1.1363ZM4.46966 4.46963L1.13633 7.80296L2.19699 8.86362L5.53032 5.53029L4.46966 4.46963ZM1.13633 2.19696L4.46966 5.53029L5.53032 4.46963L2.19699 1.1363L1.13633 2.19696Z" fill="white"/>
</svg>
