<svg width="16" height="10" viewBox="0 0 16 10" fill="none" xmlns="http://www.w3.org/2000/svg">
<path d="M8 2L8.70711 1.29289L8 0.585786L7.29289 1.29289L8 2ZM13.9596 9.37377C14.3501 9.7643 14.9832 9.7643 15.3738 9.37377C15.7643 8.98325 15.7643 8.35008 15.3738 7.95956L13.9596 9.37377ZM0.626225 7.95956C0.235701 8.35008 0.235701 8.98325 0.626225 9.37377C1.01675 9.7643 1.64991 9.7643 2.04044 9.37377L0.626225 7.95956ZM7.29289 2.70711L13.9596 9.37377L15.3738 7.95956L8.70711 1.29289L7.29289 2.70711ZM2.04044 9.37377L8.70711 2.70711L7.29289 1.29289L0.626225 7.95956L2.04044 9.37377Z" fill="#2E2E2E"/>
</svg>
