<svg width="80" height="84" viewBox="0 0 80 84" fill="none" xmlns="http://www.w3.org/2000/svg">
<path d="M8.75425 71.238L1.77777 67.1428L8.18084 56.1904L33.8887 70.9523L27.5812 81.9999L19.8402 77.619" stroke="#021C5A" stroke-width="3" stroke-miterlimit="10" stroke-linecap="round" stroke-linejoin="round"/>
<path d="M15.0619 74.8571L14.2018 74.2856" stroke="#021C5A" stroke-width="3" stroke-miterlimit="10" stroke-linecap="round" stroke-linejoin="round"/>
<path d="M32.2642 68.6666H53.0025C53.2892 68.6666 53.4803 68.6666 53.767 68.6666L57.7809 68.1904C61.4125 67.8094 64.7573 66.2856 67.4333 63.8094L76.7034 55.3332C78.8059 53.4285 78.7103 49.9999 76.5122 48.1904C74.6009 46.5713 71.7338 46.7618 70.0136 48.5713L63.1327 55.7142C62.2726 56.5713 61.1258 57.238 59.9789 57.5237L57.6853 57.9999C56.2518 58.2856 54.8183 58.4761 53.3847 58.4761L37.616 58.1904H49.6576C52.0468 58.1904 54.0537 56.1904 54.0537 53.8094C54.0537 51.4285 52.0468 49.4285 49.6576 49.4285H39.0495L38.5717 49.0475C33.3154 45.7142 26.7212 45.3332 21.0827 48.0951C19.3624 48.9523 17.7378 50.0951 16.3043 51.4285L10.8569 56.6666" stroke="#021C5A" stroke-width="3" stroke-miterlimit="10" stroke-linecap="round" stroke-linejoin="round"/>
<path d="M23.4721 29.6191V35.4287" stroke="#021C5A" stroke-width="3" stroke-miterlimit="10" stroke-linecap="round" stroke-linejoin="round"/>
<path d="M26.3388 32.4761H20.5091" stroke="#021C5A" stroke-width="3" stroke-miterlimit="10" stroke-linecap="round" stroke-linejoin="round"/>
<path d="M64.4705 2V7.80952" stroke="#021C5A" stroke-width="3" stroke-miterlimit="10" stroke-linecap="round" stroke-linejoin="round"/>
<path d="M67.4331 4.85742H61.6034" stroke="#021C5A" stroke-width="3" stroke-miterlimit="10" stroke-linecap="round" stroke-linejoin="round"/>
<path d="M44.3056 19.4285L47.6505 10.0952C48.2239 8.47617 50.6131 8.47617 51.1865 10.1905L53.958 19.1428H64.1838C65.9996 19.1428 66.7641 21.4285 65.235 22.4762L56.9206 28.2857L60.0743 37.619C60.6477 39.3333 58.7364 40.7619 57.2073 39.7143L49.3707 33.9047L40.9607 39.9047C39.5272 40.9523 37.6158 39.5238 38.0936 37.8095L41.2474 28.3809L33.3152 22.4762C31.8817 21.4285 32.6462 19.1428 34.462 19.1428L44.3056 19.4285Z" stroke="#021C5A" stroke-width="3" stroke-miterlimit="10" stroke-linecap="round" stroke-linejoin="round"/>
</svg>
