<svg width="20" height="20" viewBox="0 0 20 20" fill="none" xmlns="http://www.w3.org/2000/svg">
<path d="M10.2791 9.51512C9.85545 9.51512 9.5151 9.85547 9.5151 10.2792C9.5151 10.7029 9.85545 11.0432 10.2791 11.0432C10.7028 11.0432 11.0432 10.7029 11.0432 10.2792C11.0432 9.85547 10.7028 9.51512 10.2791 9.51512ZM10.2791 3.33333C6.44505 3.33333 3.33331 6.44506 3.33331 10.2792C3.33331 14.1133 6.44505 17.225 10.2791 17.225C14.1132 17.225 17.225 14.1133 17.225 10.2792C17.225 6.44506 14.1132 3.33333 10.2791 3.33333ZM11.8003 11.8003L6.11165 14.4467L8.75801 8.75802L14.4466 6.11166L11.8003 11.8003Z" fill="#4F4F4F"/>
</svg>
