<svg width="12" height="12" viewBox="0 0 12 12" fill="none" xmlns="http://www.w3.org/2000/svg">
<path d="M3 6L2.29289 5.29289L1.58579 6L2.29289 6.70711L3 6ZM8.70711 1.70711C9.09763 1.31658 9.09763 0.683418 8.70711 0.292893C8.31658 -0.097631 7.68342 -0.0976311 7.29289 0.292893L8.70711 1.70711ZM7.29289 11.7071C7.68342 12.0976 8.31658 12.0976 8.7071 11.7071C9.09763 11.3166 9.09763 10.6834 8.70711 10.2929L7.29289 11.7071ZM3.70711 6.70711L8.70711 1.70711L7.29289 0.292893L2.29289 5.29289L3.70711 6.70711ZM8.70711 10.2929L3.70711 5.29289L2.29289 6.70711L7.29289 11.7071L8.70711 10.2929Z" fill="#4F4F4F"/>
</svg>
