<svg width="181" height="47" viewBox="0 0 181 47" fill="none" xmlns="http://www.w3.org/2000/svg">
<path d="M13.683 9.40613V20.1304L20.1709 16.3778V45.1995C21.7404 44.9722 23.2367 44.5192 24.6297 43.8744V15.7379L13.683 9.40613Z" fill="url(#paint0_linear)"/>
<path d="M26.0036 23.8831V43.1555C28.4397 41.7306 30.4799 39.6866 31.9174 37.2364V26.7539L26.0036 23.8831Z" fill="url(#paint1_linear)"/>
<path d="M3.64441 33.171V37.0622C5.06601 39.5559 7.10777 41.6385 9.55821 43.0957V31.0609L3.64441 33.171Z" fill="url(#paint2_linear)"/>
<path d="M10.9305 23.3268V43.8259C13.028 44.8157 15.3655 45.3686 17.8318 45.3686C18.1562 45.3686 18.4774 45.3573 18.7971 45.3396V18.7762L10.9305 23.3268Z" fill="url(#paint3_linear)"/>
<path fill-rule="evenodd" clip-rule="evenodd" d="M0.756287 17.2579C0.756287 7.72733 8.37916 0 17.7809 0C27.1827 0 34.804 7.72736 34.8024 17.2579C34.8024 17.258 34.8024 17.2579 34.8024 17.2579V28.7705C34.8024 38.3011 27.1811 46.0268 17.7793 46.0268C8.37757 46.0268 0.756287 38.3011 0.756287 28.7705V17.2579ZM17.7809 1.31617C9.09624 1.31617 2.05467 8.45424 2.05467 17.2579V28.7705C2.05467 37.5742 9.09465 44.7107 17.7793 44.7107C26.464 44.7107 33.504 37.5742 33.504 28.7705V17.2579C33.5055 8.45427 26.4656 1.31617 17.7809 1.31617Z" fill="url(#paint4_linear)"/>
<path d="M48.4964 17.1805H52.1093L47.6298 22.9691L52.1093 28.7576H48.4964L45.34 24.5181V28.7576H42.2821V17.1805H45.34V21.42L48.4964 17.1805Z" fill="#905731"/>
<path d="M60.0442 17.1805H63.102V28.7576H60.0442V24.5181H56.0847V28.7576H53.0252V17.1805H56.0831V21.42H60.0426V17.1805H60.0442Z" fill="#905731"/>
<path d="M76.0142 17.1805H79.072V28.7576H76.0142V17.1805Z" fill="#905731"/>
<path d="M69.9111 17.1805H69.0413L63.9655 28.7576H66.885L67.2937 27.792H71.4854L71.9099 28.7576H74.9885L69.9111 17.1805ZM68.2446 25.5401L69.3561 22.9126L70.4995 25.5401H68.2446Z" fill="#905731"/>
<path d="M89.2204 17.1805H92.2782V28.7576H89.2204V24.5181H85.2609V28.7576H82.203V17.1805H85.2609V21.42H89.2204V17.1805Z" fill="#905731"/>
<path d="M95.2646 27.6195C94.3375 26.8119 93.8748 25.6642 93.8748 24.178V17.1805H96.8897V24.1458C96.8897 25.4998 97.5114 26.1784 98.7565 26.1784C100.006 26.1784 100.631 25.5014 100.631 24.1458V17.1805H103.638V24.178C103.638 25.6642 103.177 26.8103 102.256 27.6195C101.388 28.3788 100.223 28.7592 98.7565 28.7592C97.2904 28.7592 96.1264 28.3788 95.2646 27.6195Z" fill="#905731"/>
<path d="M127.987 21.9277H125.317H122.762V24.5294H125.086C124.551 25.4869 123.538 26.1333 122.374 26.1333C120.65 26.1333 119.254 24.7164 119.254 22.9706C119.254 22.0212 119.667 21.1733 120.321 20.593C120.869 20.1046 121.586 19.808 122.374 19.808C123.161 19.808 123.878 20.1062 124.426 20.593H127.572C126.677 18.5829 124.689 17.1821 122.372 17.1821C120.055 17.1821 118.064 18.5829 117.169 20.593C116.846 21.3184 116.662 22.1228 116.662 22.9706C116.662 26.1671 119.219 28.7592 122.372 28.7592C124.993 28.7592 127.195 26.9683 127.868 24.5294C128.004 24.0329 128.084 23.5106 128.084 22.9706C128.084 22.6128 128.047 22.2662 127.987 21.9277Z" fill="#905731"/>
<path d="M115.587 17.1805H112.529V22.9803L105.993 17.1805C105.752 17.1805 105.311 17.1805 105.149 17.1805V28.7576H108.207V22.9787L114.742 28.7576C114.89 28.7576 115.421 28.7576 115.587 28.7576V17.1805Z" fill="#905731"/>
<path d="M132.835 17.1805H135.893V25.6578H140.746V28.7576H132.835V17.1805Z" fill="#905731"/>
<path d="M164.869 17.1805H169.288C170.966 17.1805 172.338 17.6964 173.403 18.7264C174.507 19.7951 175.06 21.212 175.06 22.9739C175.06 24.7358 174.509 26.1494 173.403 27.2133C172.338 28.2434 170.966 28.7592 169.288 28.7592H164.869V17.1805ZM168.953 26.1398C169.87 26.1398 170.598 25.8512 171.133 25.2758C171.669 24.7051 171.936 23.9378 171.936 22.9739C171.936 22.0051 171.669 21.2346 171.133 20.664C170.597 20.0933 169.87 19.808 168.953 19.808H167.929V26.1414H168.953V26.1398Z" fill="#905731"/>
<path d="M147.029 17.1805H146.159L141.083 28.7576H144.003L144.412 27.792H148.603L149.028 28.7576H152.106L147.029 17.1805ZM145.363 25.5401L146.474 22.9126L147.617 25.5401H145.363Z" fill="#905731"/>
<path d="M163.637 17.1805H160.579V22.9803L154.043 17.1805C153.802 17.1805 153.361 17.1805 153.199 17.1805V28.7576H156.257V22.9787L162.792 28.7576C162.94 28.7576 163.471 28.7576 163.637 28.7576V17.1805Z" fill="#905731"/>
<path d="M176.695 19.347C176.695 18.7377 176.892 18.2251 177.287 17.8076C177.681 17.3901 178.161 17.1805 178.726 17.1805C179.289 17.1805 179.767 17.3901 180.163 17.8076C180.559 18.2251 180.756 18.7377 180.756 19.347C180.756 19.9579 180.558 20.4738 180.162 20.8929C179.766 21.312 179.287 21.5215 178.726 21.5215C178.161 21.5215 177.681 21.312 177.287 20.8929C176.892 20.4738 176.695 19.9579 176.695 19.347ZM177.045 19.347C177.045 19.858 177.209 20.2868 177.535 20.6366C177.862 20.9847 178.258 21.1604 178.726 21.1604C179.192 21.1604 179.588 20.9864 179.913 20.6366C180.241 20.2884 180.405 19.858 180.405 19.347C180.405 18.8392 180.241 18.4105 179.913 18.0639C179.586 17.7173 179.19 17.5432 178.726 17.5432C178.257 17.5432 177.859 17.7173 177.533 18.0639C177.207 18.4105 177.045 18.8392 177.045 19.347ZM178.314 19.5678V20.5447H177.881V18.08H178.684C178.972 18.08 179.2 18.1461 179.365 18.2767C179.53 18.4088 179.613 18.5958 179.613 18.8392C179.613 18.9521 179.586 19.0488 179.53 19.1342C179.475 19.2197 179.394 19.2906 179.287 19.3502C179.398 19.4083 179.478 19.4905 179.529 19.5952C179.58 19.7 179.605 19.8241 179.605 19.9676V20.1304C179.605 20.2094 179.608 20.2803 179.615 20.3432C179.621 20.4061 179.634 20.4576 179.653 20.4979V20.5447H179.209C179.192 20.5044 179.182 20.4447 179.177 20.3658C179.172 20.2868 179.171 20.2078 179.171 20.1272V19.9708C179.171 19.8338 179.139 19.7323 179.075 19.6662C179.012 19.6001 178.907 19.5678 178.762 19.5678H178.314ZM178.314 19.1794H178.7C178.835 19.1794 178.95 19.1503 179.045 19.0923C179.139 19.0343 179.187 18.9505 179.187 18.8425C179.187 18.7038 179.15 18.6055 179.075 18.5491C179.001 18.4927 178.872 18.4653 178.686 18.4653H178.314V19.1794Z" fill="#010101"/>
<defs>
<linearGradient id="paint0_linear" x1="38.4946" y1="5.45666" x2="3.47641" y2="42.7861" gradientUnits="userSpaceOnUse">
<stop stop-color="#C2862B"/>
<stop offset="0.0496" stop-color="#CE9D3C"/>
<stop offset="0.123" stop-color="#DFBE5C"/>
<stop offset="0.1903" stop-color="#EED876"/>
<stop offset="0.2485" stop-color="#F8EA86"/>
<stop offset="0.2911" stop-color="#FCF38C"/>
<stop offset="0.3792" stop-color="#DEBC5A"/>
<stop offset="0.4679" stop-color="#C99434"/>
<stop offset="0.5118" stop-color="#C2862B"/>
<stop offset="0.622" stop-color="#D5AB48"/>
<stop offset="0.7838" stop-color="#FCF38C"/>
<stop offset="0.8216" stop-color="#F9EC88"/>
<stop offset="0.8608" stop-color="#F2DF7C"/>
<stop offset="0.9006" stop-color="#E7CC69"/>
<stop offset="0.9409" stop-color="#D9B350"/>
<stop offset="0.9811" stop-color="#CA9535"/>
<stop offset="1" stop-color="#C2862B"/>
</linearGradient>
<linearGradient id="paint1_linear" x1="41.1197" y1="17.5112" x2="14.2389" y2="46.1662" gradientUnits="userSpaceOnUse">
<stop stop-color="#C2862B"/>
<stop offset="0.0496" stop-color="#CE9D3C"/>
<stop offset="0.123" stop-color="#DFBE5C"/>
<stop offset="0.1903" stop-color="#EED876"/>
<stop offset="0.2485" stop-color="#F8EA86"/>
<stop offset="0.2911" stop-color="#FCF38C"/>
<stop offset="0.3792" stop-color="#DEBC5A"/>
<stop offset="0.4679" stop-color="#C99434"/>
<stop offset="0.5118" stop-color="#C2862B"/>
<stop offset="0.622" stop-color="#D5AB48"/>
<stop offset="0.7838" stop-color="#FCF38C"/>
<stop offset="0.8216" stop-color="#F9EC88"/>
<stop offset="0.8608" stop-color="#F2DF7C"/>
<stop offset="0.9006" stop-color="#E7CC69"/>
<stop offset="0.9409" stop-color="#D9B350"/>
<stop offset="0.9811" stop-color="#CA9535"/>
<stop offset="1" stop-color="#C2862B"/>
</linearGradient>
<linearGradient id="paint2_linear" x1="-2.25966" y1="24.6571" x2="18.8694" y2="47.1807" gradientUnits="userSpaceOnUse">
<stop stop-color="#C2862B"/>
<stop offset="0.0496" stop-color="#CE9D3C"/>
<stop offset="0.123" stop-color="#DFBE5C"/>
<stop offset="0.1903" stop-color="#EED876"/>
<stop offset="0.2485" stop-color="#F8EA86"/>
<stop offset="0.2911" stop-color="#FCF38C"/>
<stop offset="0.3792" stop-color="#DEBC5A"/>
<stop offset="0.4679" stop-color="#C99434"/>
<stop offset="0.5118" stop-color="#C2862B"/>
<stop offset="0.622" stop-color="#D5AB48"/>
<stop offset="0.7838" stop-color="#FCF38C"/>
<stop offset="0.8216" stop-color="#F9EC88"/>
<stop offset="0.8608" stop-color="#F2DF7C"/>
<stop offset="0.9006" stop-color="#E7CC69"/>
<stop offset="0.9409" stop-color="#D9B350"/>
<stop offset="0.9811" stop-color="#CA9535"/>
<stop offset="1" stop-color="#C2862B"/>
</linearGradient>
<linearGradient id="paint3_linear" x1="-0.464089" y1="14.5102" x2="26.7075" y2="43.4752" gradientUnits="userSpaceOnUse">
<stop stop-color="#C2862B"/>
<stop offset="0.0496" stop-color="#CE9D3C"/>
<stop offset="0.123" stop-color="#DFBE5C"/>
<stop offset="0.1903" stop-color="#EED876"/>
<stop offset="0.2485" stop-color="#F8EA86"/>
<stop offset="0.2911" stop-color="#FCF38C"/>
<stop offset="0.3792" stop-color="#DEBC5A"/>
<stop offset="0.4679" stop-color="#C99434"/>
<stop offset="0.5118" stop-color="#C2862B"/>
<stop offset="0.622" stop-color="#D5AB48"/>
<stop offset="0.7838" stop-color="#FCF38C"/>
<stop offset="0.8216" stop-color="#F9EC88"/>
<stop offset="0.8608" stop-color="#F2DF7C"/>
<stop offset="0.9006" stop-color="#E7CC69"/>
<stop offset="0.9409" stop-color="#D9B350"/>
<stop offset="0.9811" stop-color="#CA9535"/>
<stop offset="1" stop-color="#C2862B"/>
</linearGradient>
<linearGradient id="paint4_linear" x1="3.38716" y1="7.2469" x2="32.5961" y2="38.3836" gradientUnits="userSpaceOnUse">
<stop stop-color="#C2862B"/>
<stop offset="0.0496" stop-color="#CE9D3C"/>
<stop offset="0.123" stop-color="#DFBE5C"/>
<stop offset="0.1903" stop-color="#EED876"/>
<stop offset="0.2485" stop-color="#F8EA86"/>
<stop offset="0.2911" stop-color="#FCF38C"/>
<stop offset="0.3792" stop-color="#DEBC5A"/>
<stop offset="0.4679" stop-color="#C99434"/>
<stop offset="0.5118" stop-color="#C2862B"/>
<stop offset="0.622" stop-color="#D5AB48"/>
<stop offset="0.7838" stop-color="#FCF38C"/>
<stop offset="0.8216" stop-color="#F9EC88"/>
<stop offset="0.8608" stop-color="#F2DF7C"/>
<stop offset="0.9006" stop-color="#E7CC69"/>
<stop offset="0.9409" stop-color="#D9B350"/>
<stop offset="0.9811" stop-color="#CA9535"/>
<stop offset="1" stop-color="#C2862B"/>
</linearGradient>
</defs>
</svg>
