<svg width="20" height="21" viewBox="0 0 20 21" fill="none" xmlns="http://www.w3.org/2000/svg">
<path d="M17.5 10.4999L18.2071 11.207L18.9142 10.4999L18.2071 9.79281L17.5 10.4999ZM10.1262 16.4595C9.73569 16.85 9.73569 17.4832 10.1262 17.8737C10.5167 18.2642 11.1499 18.2642 11.5404 17.8737L10.1262 16.4595ZM11.5404 3.12615C11.1499 2.73562 10.5167 2.73562 10.1262 3.12615C9.73569 3.51667 9.73569 4.14983 10.1262 4.54036L11.5404 3.12615ZM1.66666 9.49992C1.11437 9.49992 0.666656 9.94763 0.666656 10.4999C0.666656 11.0522 1.11437 11.4999 1.66666 11.4999L1.66666 9.49992ZM16.7929 9.79281L10.1262 16.4595L11.5404 17.8737L18.2071 11.207L16.7929 9.79281ZM10.1262 4.54036L16.7929 11.207L18.2071 9.79281L11.5404 3.12615L10.1262 4.54036ZM17.5 9.49992L1.66666 9.49992L1.66666 11.4999L17.5 11.4999V9.49992Z" fill="#005AEB"/>
</svg>
