<svg width="41" height="40" viewBox="0 0 41 40" fill="none" xmlns="http://www.w3.org/2000/svg">
<path d="M30.5 26.8C29.2333 26.8 28.1 27.3 27.2333 28.0833L15.35 21.1666C15.4333 20.7833 15.5 20.4 15.5 20C15.5 19.6 15.4333 19.2166 15.35 18.8333L27.1 11.9833C28 12.8166 29.1833 13.3333 30.5 13.3333C33.2667 13.3333 35.5 11.1 35.5 8.33331C35.5 5.56665 33.2667 3.33331 30.5 3.33331C27.7333 3.33331 25.5 5.56665 25.5 8.33331C25.5 8.73331 25.5667 9.11665 25.65 9.49998L13.9 16.35C13 15.5166 11.8167 15 10.5 15C7.73333 15 5.5 17.2333 5.5 20C5.5 22.7666 7.73333 25 10.5 25C11.8167 25 13 24.4833 13.9 23.65L25.7667 30.5833C25.6833 30.9333 25.6333 31.3 25.6333 31.6666C25.6333 34.35 27.8167 36.5333 30.5 36.5333C33.1833 36.5333 35.3667 34.35 35.3667 31.6666C35.3667 28.9833 33.1833 26.8 30.5 26.8Z" fill="black" fill-opacity="0.87"/>
</svg>
