<svg width="24" height="24" viewBox="0 0 24 24" fill="none" xmlns="http://www.w3.org/2000/svg">
<path d="M18 12L18.7071 12.7071L19.4142 12L18.7071 11.2929L18 12ZM7.29289 21.2929C6.90237 21.6834 6.90237 22.3166 7.29289 22.7071C7.68342 23.0976 8.31658 23.0976 8.70711 22.7071L7.29289 21.2929ZM8.70711 1.29289C8.31659 0.902369 7.68342 0.902369 7.2929 1.29289C6.90237 1.68342 6.90237 2.31658 7.2929 2.70711L8.70711 1.29289ZM17.2929 11.2929L7.29289 21.2929L8.70711 22.7071L18.7071 12.7071L17.2929 11.2929ZM7.2929 2.70711L17.2929 12.7071L18.7071 11.2929L8.70711 1.29289L7.2929 2.70711Z" fill="#465280"/>
</svg>
